<?xml version="1.0" standalone="no"?>
<!DOCTYPE svg PUBLIC "-//W3C//DTD SVG 20010904//EN"
 "http://www.w3.org/TR/2001/REC-SVG-20010904/DTD/svg10.dtd">
<svg version="1.0" xmlns="http://www.w3.org/2000/svg"
 width="227.000000pt" height="203.000000pt" viewBox="0 0 227.000000 203.000000"
 preserveAspectRatio="xMidYMid meet">

<g transform="translate(0.000000,203.000000) scale(0.100000,-0.100000)"
fill="#000000" stroke="none">
<path d="M1125 1840 c-22 -11 -46 -19 -53 -20 -30 0 -140 -44 -170 -66 -38
-29 -58 -64 -72 -128 -7 -33 -7 -53 1 -67 12 -24 34 -22 109 6 25 10 75 20
113 23 l67 5 0 -27 c0 -25 -15 -34 -224 -135 -139 -67 -228 -117 -235 -129 -6
-12 -11 -80 -11 -164 l0 -143 -179 -83 c-98 -46 -193 -92 -210 -103 l-31 -19
2 -206 c3 -184 5 -208 21 -218 12 -8 22 -8 35 0 15 10 17 33 20 193 l2 183
166 79 c90 43 167 79 169 79 3 0 5 -139 5 -310 l0 -310 -198 0 c-141 0 -201
-3 -210 -12 -18 -18 -14 -56 7 -68 27 -14 1805 -14 1832 0 18 10 19 24 19 304
l0 293 -210 99 -210 99 0 151 c0 109 -4 154 -12 162 -7 6 -113 60 -235 121
l-223 111 0 144 c0 118 -3 147 -16 160 -19 20 -20 20 -69 -4z m-5 -135 l0 -35
-57 0 c-32 0 -75 -4 -95 -9 -34 -8 -37 -7 -28 8 8 17 50 38 115 60 55 18 65
14 65 -24z m470 -937 l0 -488 -85 0 -85 0 0 203 c0 191 -2 205 -24 252 -39 86
-126 136 -231 136 -108 0 -193 -51 -232 -139 -22 -49 -23 -65 -23 -252 l0
-200 -85 0 -85 0 0 488 0 487 213 106 212 106 213 -106 212 -106 0 -487z m264
53 l166 -80 0 -230 0 -231 -170 0 -170 0 0 310 c0 171 2 310 4 310 3 0 79 -36
170 -79z m-603 -54 c77 -41 84 -62 87 -289 l4 -198 -171 0 -171 0 0 203 c0
232 5 247 81 285 57 28 115 28 170 -1z"/>
<path d="M1145 1343 c-53 -9 -67 -16 -100 -45 -65 -56 -84 -123 -60 -205 49
-166 282 -178 356 -18 26 57 24 108 -8 166 -37 70 -118 113 -188 102z m75
-100 c59 -35 69 -118 19 -164 -50 -47 -128 -37 -162 21 -56 94 49 199 143 143z"/>
</g>
</svg>
